<svg xmlns="http://www.w3.org/2000/svg"
 width="1200" height="800" viewBox="-150 -48.38625 1300 290.3175">
<g transform="translate(180.0, 100.0) scale(0.199,-0.199)"
fill="#900C3F" stroke="none">
<path d="M1660 1005 c0 -65 -6 -75 -27 -54 -19 19 -92 14 -121 -8 -38 -28 -52
-60 -52 -122 0 -121 88 -186 178 -131 26 16 32 17 32 5 0 -11 12 -15 50 -15
l50 0 0 195 0 195 -55 0 -55 0 0 -65z m-6 -157 c19 -53 -23 -116 -61 -92 -22
13 -30 89 -12 110 20 24 62 13 73 -18z"/>
<path d="M2440 875 l0 -195 50 0 c40 0 50 3 50 17 0 14 2 14 21 -3 32 -28 110
-26 142 4 51 48 60 170 16 226 -28 36 -81 49 -130 32 l-39 -14 0 64 0 64 -55
0 -55 0 0 -195z m190 -14 c23 -43 1 -111 -36 -111 -37 0 -61 89 -32 118 18 18
56 14 68 -7z"/>
<path d="M3527 1064 c-4 -4 -7 -92 -7 -196 l0 -188 60 0 60 0 0 38 c0 25 7 45
18 55 17 16 20 13 45 -38 l27 -55 60 0 c70 0 70 -12 -3 114 l-40 69 47 44 c25
24 46 46 46 49 0 2 -28 4 -63 4 -63 0 -64 -1 -98 -42 l-34 -43 -5 95 -5 95
-50 3 c-28 2 -54 0 -58 -4z"/>
<path d="M473 959 c-18 -5 -35 -14 -38 -19 -9 -15 -25 -12 -25 5 0 11 -12 15
-50 15 l-50 0 0 -140 0 -140 55 0 55 0 0 81 c0 86 10 119 38 119 34 0 42 -21
42 -112 l0 -88 55 0 54 0 3 91 c3 96 15 120 52 106 13 -5 16 -23 16 -102 l0
-95 55 0 55 0 0 104 c0 58 -4 116 -10 131 -21 55 -119 66 -171 19 -12 -11 -19
-13 -19 -5 0 7 -16 19 -35 27 -39 16 -38 16 -82 3z"/>
<path d="M1370 963 c-8 -3 -23 -12 -32 -21 -16 -14 -18 -13 -18 1 0 14 -10 17
-50 17 l-50 0 0 -140 0 -140 55 0 55 0 0 78 c0 88 16 122 56 122 19 0 28 8 39
33 7 17 11 35 7 38 -12 11 -46 18 -62 12z"/>
<path d="M1938 960 c-51 -9 -87 -36 -104 -75 -46 -112 26 -215 150 -215 55 0
124 28 143 59 11 18 8 20 -35 26 -33 4 -56 2 -76 -9 -16 -8 -36 -12 -45 -9
-17 6 -41 32 -41 45 0 4 50 8 111 8 l111 0 -7 43 c-14 81 -53 120 -130 129
-22 3 -56 2 -77 -2z m80 -72 c7 -7 12 -20 12 -30 0 -15 -9 -18 -50 -18 -54 0
-62 10 -33 42 18 21 53 24 71 6z"/>
<path d="M2350 963 c-8 -3 -23 -12 -32 -21 -16 -14 -18 -13 -18 1 0 14 -10 17
-50 17 l-50 0 0 -140 0 -140 55 0 55 0 0 81 c0 96 10 119 50 119 24 0 33 6 44
33 7 17 11 35 7 38 -10 11 -45 18 -61 12z"/>
<path d="M2910 961 c-82 -17 -120 -64 -120 -150 0 -48 3 -57 38 -91 82 -82
233 -58 271 43 45 119 -55 224 -189 198z m72 -88 c25 -23 24 -87 -2 -113 -24
-24 -29 -24 -58 -4 -17 12 -22 25 -22 59 0 67 41 96 82 58z"/>
<path d="M3270 961 c-74 -15 -120 -71 -120 -146 0 -47 22 -88 62 -117 43 -30
149 -33 191 -5 89 58 88 205 0 250 -38 19 -90 26 -133 18z m74 -87 c25 -25 21
-99 -6 -118 -29 -20 -34 -20 -58 4 -39 39 -17 130 31 130 10 0 25 -7 33 -16z"/>
<path d="M850 873 c1 -98 11 -159 33 -180 26 -26 92 -28 132 -5 28 17 35 18
35 7 0 -11 13 -15 50 -15 l50 0 0 140 0 140 -55 0 -55 0 0 -84 c0 -101 -5
-116 -36 -116 -34 0 -44 28 -44 119 l0 81 -55 0 -55 0 0 -87z"/>
</g>
</svg>
